<?xml version="1.0" standalone="no"?>
<svg xmlns="http://www.w3.org/2000/svg" viewBox="0 0 94.741 29" width="94.741" height="29"><g fill="#4E3FCE" color="#4E3FCE" transform="translate(0, 0) scale(0.6041667)"><svg width="28.0" height="48.0" x="0.0" y="0.0" viewBox="0 0 28 48"><path fill="currentColor" fill-rule="nonzero" d="M13.93.61L.36 30.2l13.57 17.19L27.51 30.2 13.93.61zm0 3.92L25.6 30.02H2.26L13.93 4.53z"></path></svg></g><line x1="28.917" y1="1" x2="28.917" y2="28" stroke="#4E3FCE" stroke-linecap="round"></line><path fill="#4E3FCE" fill-rule="nonzero" d="M2.62 16.94L0.22 16.94Q0.02 16.94 0.02 16.78L0.02 16.78L0 0.43Q0 0.24 0.19 0.24L0.19 0.24L2.35 0.24L6.41 9.70L6.29 0.43Q6.29 0.24 6.50 0.24L6.50 0.24L8.88 0.24Q9.02 0.24 9.02 0.43L9.02 0.43L9.05 16.80Q9.05 16.94 8.93 16.94L8.93 16.94L6.82 16.94L2.66 8.11L2.83 16.75Q2.83 16.94 2.62 16.94L2.62 16.94ZM13.94 16.94L11.26 16.94Q11.14 16.94 11.14 16.82L11.14 16.82L11.18 0.34Q11.18 0.24 11.28 0.24L11.28 0.24L18.96 0.24Q19.08 0.24 19.08 0.34L19.08 0.34L19.08 3.05Q19.08 3.14 18.98 3.14L18.98 3.14L14.06 3.14L14.06 6.86L18.98 6.86Q19.08 6.86 19.08 6.98L19.08 6.98L19.10 9.70Q19.10 9.79 18.98 9.79L18.98 9.79L14.06 9.79L14.06 16.82Q14.06 16.94 13.94 16.94L13.94 16.94ZM26.35 16.94L23.64 16.94Q23.54 16.94 23.54 16.82L23.54 16.82L23.54 3.14L20.42 3.14Q20.30 3.14 20.30 3.02L20.30 3.02L20.33 0.34Q20.33 0.24 20.42 0.24L20.42 0.24L29.54 0.24Q29.66 0.24 29.66 0.34L29.66 0.34L29.66 3.02Q29.66 3.14 29.57 3.14L29.57 3.14L26.42 3.14L26.45 16.82Q26.45 16.94 26.35 16.94L26.35 16.94ZM33.67 16.94L30.96 16.94Q30.84 16.94 30.84 16.82L30.84 16.82L30.86 0.34Q30.86 0.24 30.96 0.24L30.96 0.24L33.65 0.24Q33.74 0.24 33.74 0.34L33.74 0.34L33.77 16.82Q33.77 16.94 33.67 16.94L33.67 16.94ZM38.69 16.94L36 16.94Q35.88 16.94 35.88 16.82L35.88 16.82L35.93 0.34Q35.93 0.24 36.02 0.24L36.02 0.24L40.63 0.24Q42.84 0.24 44.12 1.58Q45.41 2.93 45.41 5.23L45.41 5.23Q45.41 6.94 44.74 8.18Q44.06 9.43 42.98 10.10Q41.90 10.78 40.63 10.78L40.63 10.78L38.81 10.78L38.81 16.82Q38.81 16.94 38.69 16.94L38.69 16.94ZM38.81 3.12L38.81 7.87L40.63 7.87Q41.40 7.87 41.96 7.14Q42.53 6.41 42.53 5.23L42.53 5.23Q42.53 4.30 42.02 3.70Q41.52 3.10 40.63 3.10L40.63 3.10L38.81 3.12ZM51.12 17.18L51.12 17.18Q49.82 17.18 48.76 16.52Q47.69 15.86 47.05 14.77Q46.42 13.68 46.42 12.36L46.42 12.36L46.42 11.26Q46.42 11.14 46.54 11.14L46.54 11.14L49.22 11.14Q49.32 11.14 49.32 11.26L49.32 11.26L49.32 12.36Q49.32 13.15 49.85 13.72Q50.38 14.28 51.12 14.28L51.12 14.28Q51.86 14.28 52.39 13.70Q52.92 13.13 52.92 12.36L52.92 12.36Q52.92 11.47 51.77 10.82L51.77 10.82Q51.38 10.61 50.57 10.15Q49.75 9.70 49.03 9.29L49.03 9.29Q47.71 8.52 47.08 7.36Q46.44 6.19 46.44 4.73L46.44 4.73Q46.44 3.38 47.09 2.32Q47.74 1.25 48.80 0.62Q49.87 0 51.12 0L51.12 0Q52.39 0 53.46 0.64Q54.53 1.27 55.16 2.34Q55.80 3.41 55.80 4.73L55.80 4.73L55.80 6.70Q55.80 6.79 55.70 6.79L55.70 6.79L53.02 6.79Q52.92 6.79 52.92 6.70L52.92 6.70L52.90 4.73Q52.90 3.89 52.37 3.36Q51.84 2.83 51.12 2.83L51.12 2.83Q50.38 2.83 49.85 3.40Q49.32 3.96 49.32 4.73L49.32 4.73Q49.32 5.52 49.66 6.05Q49.99 6.58 50.88 7.06L50.88 7.06Q51 7.13 51.35 7.31Q51.70 7.49 52.10 7.72Q52.51 7.94 52.84 8.11Q53.16 8.28 53.23 8.33L53.23 8.33Q54.43 9 55.13 9.97Q55.82 10.94 55.82 12.36L55.82 12.36Q55.82 13.73 55.19 14.82Q54.55 15.91 53.48 16.55Q52.42 17.18 51.12 17.18Z" transform="translate(38.917, 6.029)"></path></svg>